<svg xmlns="http://www.w3.org/2000/svg" viewBox="0 0 512 512" width="512" height="512">
  <!-- Body -->
  <rect x="96" y="64" width="320" height="384" rx="48" fill="#2563eb"/>
  
  <!-- Windshield -->
  <path d="M128,96 L384,96 C392.8,96 400,103.2 400,112 L400,224 C400,232.8 392.8,240 384,240 L128,240 C119.2,240 112,232.8 112,224 L112,112 C112,103.2 119.2,96 128,96 Z" fill="#e0f2fe"/>
  
  <!-- Reflection on Windshield -->
  <path d="M320,96 L384,96 C392.8,96 400,103.2 400,112 L400,224 L320,96 Z" fill="white" opacity="0.3"/>
  
  <!-- Lights -->
  <circle cx="152" cy="352" r="24" fill="#fbbf24"/>
  <circle cx="360" cy="352" r="24" fill="#fbbf24"/>
  
  <!-- Grille -->
  <rect x="208" y="340" width="96" height="24" rx="8" fill="#1e40af"/>
  
  <!-- Mirrors -->
  <path d="M96,160 L64,160 C55.2,160 48,167.2 48,176 L48,224 C48,232.8 55.2,240 64,240 L96,240" fill="#1e40af"/>
  <path d="M416,160 L448,160 C456.8,160 464,167.2 464,176 L464,224 C464,232.8 456.8,240 448,240 L416,240" fill="#1e40af"/>
  
  <!-- Roof/Top -->
  <path d="M144,48 L368,48 L352,64 L160,64 Z" fill="#1e40af"/>
</svg>